<?xml version="1.0" standalone="no"?>
<!DOCTYPE svg PUBLIC "-//W3C//DTD SVG 20010904//EN"
 "http://www.w3.org/TR/2001/REC-SVG-20010904/DTD/svg10.dtd">
<svg version="1.0" xmlns="http://www.w3.org/2000/svg"
 width="630.000000pt" height="630.000000pt" viewBox="0 0 630.000000 630.000000"
 preserveAspectRatio="xMidYMid meet">
<metadata>
Created by potrace 1.11, written by Peter Selinger 2001-2013
</metadata>
<g transform="translate(0.000000,630.000000) scale(0.100000,-0.100000)"
fill="#000000" stroke="none">
<path d="M0 5684 l0 -616 28 6 c58 15 117 24 125 19 4 -2 2 -14 -3 -26 -10
-22 -10 -22 6 1 17 22 48 30 58 13 3 -5 8 -39 10 -76 5 -78 12 -90 50 -76 21
8 25 16 22 33 -9 40 -9 62 -1 117 9 58 32 91 65 91 11 0 20 7 20 15 0 9 10 19
23 24 17 7 24 4 29 -10 10 -27 21 -24 67 19 26 24 41 47 41 63 0 15 8 28 23
34 32 15 57 7 57 -18 1 -20 2 -20 11 -4 13 22 26 22 34 -3 3 -10 20 -26 36
-34 29 -15 30 -14 46 19 10 20 26 36 41 40 13 3 37 15 53 27 26 20 31 20 55 7
29 -15 81 -16 184 -2 72 9 150 47 208 100 20 18 37 33 38 33 6 0 -11 -59 -22
-75 -8 -11 -14 -27 -14 -36 0 -21 28 -33 45 -19 15 12 25 3 25 -22 0 -21 22
-48 39 -48 6 0 11 1 11 3 0 1 4 29 10 61 7 42 6 63 -1 73 -14 16 -5 17 22 3
10 -6 19 -18 19 -26 0 -22 24 -12 28 12 5 25 41 53 70 54 12 0 22 4 22 9 0 5
27 12 60 16 33 4 63 11 66 16 9 15 54 10 54 -5 0 -8 9 -18 20 -21 20 -6 20 -7
1 -33 -11 -15 -40 -47 -65 -72 -25 -25 -46 -50 -46 -55 0 -11 47 -34 90 -45
22 -5 25 -10 24 -51 -2 -55 -38 -134 -49 -106 -10 24 -32 21 -67 -8 -16 -14
-25 -25 -19 -25 6 0 11 -7 11 -15 0 -9 -9 -15 -21 -15 -16 0 -20 5 -16 20 3
10 -1 24 -9 31 -11 9 -14 7 -15 -12 -1 -17 -4 -13 -11 15 -8 28 -8 44 0 57 8
13 8 19 -1 23 -8 3 -7 8 6 16 22 14 23 45 1 36 -8 -3 -25 0 -37 6 -28 16 -58
16 -75 0 -16 -15 -2 -37 29 -47 20 -7 27 -35 8 -35 -6 0 -9 -7 -5 -15 3 -9 -3
-24 -14 -35 -21 -21 -50 -27 -50 -10 0 6 5 10 10 10 6 0 10 5 10 11 0 6 -9 8
-20 4 -13 -4 -22 -1 -26 9 -9 22 -61 20 -109 -4 -22 -11 -47 -20 -56 -20 -10
0 -19 -5 -21 -12 -6 -18 -28 1 -28 25 0 18 -2 19 -11 7 -8 -11 -12 -12 -16 -2
-2 6 -13 12 -24 12 -11 0 -23 10 -29 24 -11 30 -49 29 -100 -2 -28 -18 -35
-28 -36 -57 -1 -19 3 -35 9 -35 7 0 7 -4 -1 -12 -7 -7 -12 -25 -12 -40 0 -25
7 -31 54 -52 29 -13 56 -29 60 -34 4 -6 7 -36 8 -67 2 -56 13 -79 28 -55 4 7
4 27 -1 44 -16 57 -11 84 19 99 81 40 162 46 162 12 0 -8 -11 -25 -25 -37 -14
-12 -25 -28 -25 -35 0 -8 -7 -16 -15 -19 -8 -4 -15 -10 -15 -15 0 -16 84 -9
140 12 77 29 169 44 183 30 15 -15 27 -14 27 4 0 10 10 15 34 15 80 0 390 99
508 163 35 18 88 42 118 52 30 10 80 28 110 40 169 69 304 116 375 130 93 18
180 57 197 88 6 12 16 25 22 29 6 4 8 9 6 11 -7 6 -358 86 -497 112 -68 13
-129 27 -135 31 -7 4 -53 37 -101 72 -93 68 -91 67 -177 47 -14 -3 2 6 35 20
49 22 70 26 115 21 57 -6 144 -35 186 -62 15 -11 33 -14 50 -10 16 4 73 -4
141 -20 85 -20 120 -24 136 -16 61 28 218 92 262 107 64 21 155 75 155 92 0
10 10 12 38 7 29 -4 60 2 132 29 52 19 113 40 135 47 22 7 63 20 90 30 28 10
61 21 75 25 14 3 47 16 73 28 41 18 50 19 58 7 6 -11 9 -12 9 -2 0 7 6 12 13
11 6 -2 36 9 66 24 30 15 57 24 60 20 3 -5 15 -13 25 -19 31 -17 29 -29 -6
-29 -27 0 -34 -4 -38 -24 -3 -17 -16 -28 -40 -36 -28 -10 -34 -17 -32 -35 1
-15 -2 -21 -11 -17 -10 4 -13 -1 -10 -18 4 -20 12 -23 90 -29 46 -3 88 -4 91
-2 4 2 12 -2 18 -9 9 -9 5 -16 -18 -30 -25 -14 -29 -22 -25 -45 4 -15 4 -30 1
-33 -11 -10 -34 5 -34 22 0 24 -8 30 -31 24 -10 -3 -19 -14 -19 -24 0 -22 -12
-24 -40 -7 -21 14 -50 3 -58 -20 -4 -12 35 -10 108 4 16 4 22 2 15 -4 -5 -6
-19 -12 -29 -14 -11 -1 -21 -13 -22 -25 -4 -22 0 -23 52 -23 63 0 137 15 174
35 61 33 230 87 248 80 8 -3 18 -1 22 4 3 6 39 16 79 22 65 11 74 10 82 -3 6
-10 17 -14 30 -11 17 5 20 2 17 -13 -2 -11 -11 -18 -21 -18 -9 1 -17 -2 -17
-8 0 -5 -5 -6 -12 -2 -8 5 -9 2 -5 -10 6 -14 3 -17 -9 -12 -8 3 -20 6 -25 6
-5 0 -7 11 -3 24 7 29 -14 46 -30 24 -6 -9 -26 -19 -44 -22 -17 -4 -53 -18
-78 -32 -25 -13 -54 -24 -65 -24 -12 0 -23 -8 -26 -19 -5 -19 -7 -19 -38 -4
-32 15 -35 15 -70 -6 -20 -11 -42 -21 -49 -21 -8 0 -19 -7 -26 -15 -7 -8 -23
-15 -36 -15 -14 0 -24 -6 -24 -14 0 -18 -35 -24 -72 -15 -21 6 -28 4 -28 -7 0
-29 -32 -28 -57 2 -23 29 -23 29 -29 6 -4 -15 -25 -32 -60 -49 -54 -26 -72
-49 -55 -66 7 -7 16 -3 28 12 15 18 23 20 43 13 l25 -9 -23 -7 c-23 -8 -51
-51 -39 -62 7 -8 97 26 97 36 0 4 6 10 14 13 9 4 12 0 9 -12 -3 -11 2 -21 10
-24 15 -5 76 11 87 24 7 7 61 27 85 31 12 2 20 11 20 22 0 11 6 21 12 23 8 3
13 -5 13 -20 0 -21 4 -24 26 -19 30 5 43 30 23 43 -20 12 -2 11 22 -1 10 -6
19 -18 20 -28 0 -13 3 -11 9 6 9 22 40 31 40 12 0 -5 5 -10 10 -10 19 0 10 39
-10 45 -11 3 -20 11 -20 16 0 15 33 24 38 11 2 -7 8 -9 14 -6 6 4 5 10 -3 15
-17 10 -12 14 26 23 28 6 29 5 11 -9 -16 -12 -17 -17 -5 -31 15 -18 14 -21 -3
-42 -6 -7 -8 -15 -5 -18 7 -7 61 -7 132 1 33 4 71 7 85 7 14 -1 41 -1 59 -2
21 0 38 5 43 14 12 21 76 32 100 17 14 -8 24 -9 39 0 11 6 28 7 37 4 31 -13
87 -12 132 3 25 7 63 14 85 14 22 -1 45 4 52 9 8 7 22 4 45 -13 46 -32 50 -40
28 -63 -29 -31 -25 -36 28 -33 l47 3 -3 46 c-3 41 0 48 31 75 18 16 41 40 50
54 17 26 61 43 145 55 l43 7 -6 -36 c-8 -38 3 -47 24 -22 7 8 20 12 29 9 10
-2 39 5 66 16 57 25 67 26 60 6 -8 -19 44 -13 78 8 15 10 48 15 96 15 40 -1
78 4 84 10 6 6 16 8 24 5 7 -3 36 3 63 12 64 21 108 73 106 126 -2 48 -11 59
-46 59 -17 0 -28 -4 -24 -9 9 -15 -30 -22 -59 -12 -14 6 -26 17 -26 25 0 24
-27 26 -49 2 -12 -12 -21 -28 -21 -34 0 -7 -7 -12 -15 -12 -12 0 -13 4 -5 19
15 30 12 33 -17 18 -16 -8 -59 -22 -98 -32 -49 -12 -76 -26 -92 -44 l-21 -26
-31 22 c-17 13 -32 19 -36 13 -4 -6 -15 -4 -29 5 -12 8 -26 12 -29 9 -4 -4 -9
1 -13 10 -6 16 -44 23 -44 8 0 -5 -6 -17 -14 -27 -13 -18 -14 -18 -41 3 -32
25 -58 28 -74 8 -7 -9 -32 -14 -65 -15 -29 0 -65 -5 -80 -11 -15 -5 -32 -8
-37 -5 -5 4 -20 -5 -33 -19 -24 -27 -50 -33 -61 -16 -11 18 -35 10 -41 -14 -4
-19 -12 -24 -32 -24 -17 1 -39 -11 -61 -31 -18 -17 -40 -31 -47 -31 -8 0 -17
-7 -20 -15 -4 -8 -17 -15 -29 -15 -26 0 -41 15 -26 25 6 3 7 27 4 53 l-5 48
33 2 c50 4 69 11 63 26 -10 26 181 55 526 79 25 2 55 9 68 16 12 6 46 15 75
18 29 3 62 12 74 19 12 8 33 14 47 14 37 0 56 10 56 31 0 13 7 19 24 19 13 0
26 -5 28 -12 2 -6 9 -8 16 -4 17 10 3 36 -22 37 -20 1 -20 2 -1 6 11 3 32 14
47 24 31 22 44 24 51 7 3 -8 6 -5 6 5 1 16 6 17 34 12 17 -4 29 -4 25 0 -11
11 11 35 31 35 9 0 43 14 76 31 54 27 189 69 222 69 7 0 13 -7 13 -15 0 -9 11
-20 24 -25 25 -9 44 -30 27 -30 -5 0 -18 -3 -28 -6 -15 -5 -15 -4 -3 5 12 9
10 11 -12 11 -39 0 -44 -17 -13 -46 25 -23 25 -24 4 -24 -15 0 -19 -5 -15 -15
4 -10 -1 -15 -14 -15 -11 0 -21 6 -22 13 0 6 -2 17 -3 22 -2 6 -3 14 -4 19 0
5 -7 4 -14 -2 -7 -6 -22 -9 -33 -6 -25 7 -51 -31 -34 -51 9 -11 7 -15 -14 -21
-14 -3 -26 -11 -26 -16 0 -14 73 0 82 15 6 9 10 8 17 -2 7 -10 16 -11 42 -3
19 6 41 11 49 10 8 -1 34 0 58 0 l42 2 0 65 c0 39 -4 65 -11 65 -5 0 -7 5 -3
11 3 6 1 15 -6 19 -7 5 -9 13 -4 21 4 7 8 23 9 36 l1 23 -3143 0 -3143 0 0
-616z m3920 376 c0 -5 -5 -10 -11 -10 -5 0 -7 5 -4 10 3 6 8 10 11 10 2 0 4
-4 4 -10z m45 -19 c3 -5 1 -12 -5 -16 -5 -3 -10 1 -10 9 0 18 6 21 15 7z
m1880 -121 c3 -5 -1 -10 -9 -10 -9 0 -16 5 -16 10 0 6 4 10 9 10 6 0 13 -4 16
-10z m-190 -60 c3 -5 2 -10 -4 -10 -5 0 -13 5 -16 10 -3 6 -2 10 4 10 5 0 13
-4 16 -10z m-1681 -81 c-8 -14 -24 -10 -24 6 0 9 6 12 15 9 8 -4 12 -10 9 -15z
m686 1 c0 -5 -2 -10 -4 -10 -3 0 -8 5 -11 10 -3 6 -1 10 4 10 6 0 11 -4 11
-10z m-50 -16 c0 -2 -7 -4 -15 -4 -8 0 -15 4 -15 10 0 5 7 7 15 4 8 -4 15 -8
15 -10z m-180 -54 c0 -5 -4 -10 -10 -10 -5 0 -10 5 -10 10 0 6 5 10 10 10 6 0
10 -4 10 -10z m-80 -40 c12 -8 11 -10 -7 -10 -13 0 -23 5 -23 10 0 13 11 13
30 0z m724 -56 c9 -24 7 -28 -9 -14 -17 14 -20 30 -6 30 5 0 12 -7 15 -16z
m-39 -4 c3 -5 1 -10 -4 -10 -6 0 -11 5 -11 10 0 6 2 10 4 10 3 0 8 -4 11 -10z
m-3639 -97 c-10 -10 -19 5 -10 18 6 11 8 11 12 0 2 -7 1 -15 -2 -18z m9 -33
c3 -5 1 -10 -4 -10 -6 0 -11 5 -11 10 0 6 2 10 4 10 3 0 8 -4 11 -10z m161
-337 c-11 -11 -19 6 -11 24 8 17 8 17 12 0 3 -10 2 -21 -1 -24z m-536 -53 c0
-5 -4 -10 -10 -10 -5 0 -10 5 -10 10 0 6 5 10 10 10 6 0 10 -4 10 -10z m560
-46 c0 -8 -4 -12 -10 -9 -5 3 -10 10 -10 16 0 5 5 9 10 9 6 0 10 -7 10 -16z
m-530 -64 c0 -5 -2 -10 -4 -10 -3 0 -8 5 -11 10 -3 6 -1 10 4 10 6 0 11 -4 11
-10z"/>
<path d="M6106 6174 c-11 -7 -16 -17 -13 -21 4 -4 15 1 24 10 9 9 15 19 12 21
-2 2 -13 -2 -23 -10z"/>
<path d="M5955 6070 c-4 -6 8 -10 29 -10 20 0 36 5 36 10 0 6 -13 10 -29 10
-17 0 -33 -4 -36 -10z"/>
<path d="M6270 5974 c0 -8 5 -12 10 -9 6 3 10 10 10 16 0 5 -4 9 -10 9 -5 0
-10 -7 -10 -16z"/>
<path d="M4750 5759 c0 -5 5 -7 10 -4 6 3 10 8 10 11 0 2 -4 4 -10 4 -5 0 -10
-5 -10 -11z"/>
<path d="M3690 5690 c0 -5 5 -10 10 -10 6 0 10 5 10 10 0 6 -4 10 -10 10 -5 0
-10 -4 -10 -10z"/>
<path d="M3730 5677 c-19 -5 -56 -11 -82 -14 -27 -3 -48 -8 -48 -13 0 -11 49
-19 56 -9 3 5 27 9 54 9 51 0 80 7 80 20 0 14 -24 17 -60 7z"/>
<path d="M6084 5649 c-3 -6 -17 -8 -30 -5 -13 4 -24 2 -24 -4 0 -5 -15 -9 -32
-7 -18 2 -44 -3 -58 -10 -14 -7 -35 -13 -47 -13 -13 0 -23 -3 -23 -8 0 -8 176
-6 198 3 9 3 11 -1 7 -14 -4 -15 0 -20 24 -23 17 -2 28 -1 25 4 -3 4 1 8 9 8
8 0 20 6 26 14 9 11 7 20 -12 40 -25 27 -51 34 -63 15z"/>
<path d="M5825 5600 c-3 -5 -2 -10 4 -10 5 0 13 5 16 10 3 6 2 10 -4 10 -5 0
-13 -4 -16 -10z"/>
<path d="M5585 5571 c-9 -16 12 -22 39 -11 14 5 26 12 26 15 0 9 -59 5 -65 -4z"/>
<path d="M5855 5570 c-3 -5 -2 -10 4 -10 5 0 13 5 16 10 3 6 2 10 -4 10 -5 0
-13 -4 -16 -10z"/>
<path d="M4555 5530 c-3 -5 3 -10 14 -10 12 0 21 5 21 10 0 6 -6 10 -14 10 -8
0 -18 -4 -21 -10z"/>
<path d="M5164 5529 c-3 -6 -1 -16 5 -22 8 -8 11 -5 11 11 0 24 -5 28 -16 11z"/>
<path d="M1320 5310 c0 -5 7 -10 16 -10 8 0 12 5 9 10 -3 6 -10 10 -16 10 -5
0 -9 -4 -9 -10z"/>
<path d="M965 5030 c3 -5 8 -10 11 -10 2 0 4 5 4 10 0 6 -5 10 -11 10 -5 0 -7
-4 -4 -10z"/>
<path d="M1 5014 c0 -11 3 -14 6 -6 3 7 2 16 -1 19 -3 4 -6 -2 -5 -13z"/>
<path d="M3016 4864 c-3 -9 -6 -29 -6 -45 0 -25 -4 -29 -27 -29 -19 0 -51 -19
-95 -54 -50 -41 -79 -56 -112 -61 -43 -7 -148 7 -616 80 -173 27 -551 76 -582
75 -8 0 -343 -375 -553 -620 -87 -102 -195 -226 -239 -275 -109 -123 -449
-522 -459 -541 -6 -10 -1 -17 15 -24 13 -5 31 -16 40 -22 14 -10 22 -10 38 0
27 17 85 15 100 -3 7 -8 23 -15 35 -15 12 0 28 -7 35 -15 7 -8 29 -15 50 -15
21 0 42 -6 48 -13 6 -7 37 -30 70 -51 82 -54 92 -76 91 -194 -1 -81 -14 -186
-18 -144 0 6 -6 12 -12 12 -6 0 -8 -9 -4 -20 7 -23 2 -25 -26 -10 -16 9 -21 7
-29 -15 -6 -15 -8 -31 -4 -36 3 -5 0 -9 -5 -9 -6 0 -11 7 -11 16 0 12 -5 14
-17 9 -10 -4 -31 -10 -47 -13 -17 -3 -31 -12 -33 -23 -3 -10 -9 -16 -14 -13
-5 2 -22 -2 -40 -11 -17 -9 -37 -14 -45 -11 -8 3 -14 2 -14 -3 0 -5 -14 -14
-31 -21 -19 -8 -26 -16 -19 -20 6 -4 -11 -10 -38 -14 -30 -4 -52 -12 -56 -21
-3 -8 -15 -15 -26 -15 -11 0 -23 -7 -26 -15 -4 -10 -14 -13 -29 -9 -13 3 -25
1 -29 -4 -8 -14 120 -30 197 -25 37 3 96 2 131 -2 63 -6 66 -7 90 -50 19 -32
24 -51 20 -74 -5 -23 -2 -37 11 -51 10 -11 21 -17 26 -14 4 2 13 -5 20 -18 9
-16 9 -23 0 -26 -6 -2 -11 -10 -11 -18 0 -7 -9 -19 -20 -26 -11 -7 -20 -24
-20 -37 0 -23 2 -24 52 -18 42 5 54 3 64 -11 10 -14 29 -17 121 -15 59 0 119
2 133 3 14 1 75 2 135 1 198 -1 318 5 439 23 79 12 121 14 125 7 5 -8 51 -9
156 -1 6 1 43 1 82 0 40 -1 78 2 84 6 6 3 32 6 58 5 25 -1 94 4 153 10 82 9
111 9 122 0 11 -9 15 -9 18 0 2 7 24 14 48 15 28 1 46 7 52 18 8 13 13 15 24
6 10 -9 31 -8 86 3 40 9 102 18 138 21 65 6 65 6 25 -8 -22 -7 -56 -18 -75
-24 l-35 -10 43 -1 c23 -1 59 6 79 14 19 8 39 15 44 15 5 0 9 -22 9 -50 0 -37
4 -50 15 -50 10 0 15 15 17 57 l3 57 40 8 c22 5 47 11 55 14 8 4 26 8 40 9 46
5 115 26 130 40 8 7 32 16 53 20 20 4 37 11 37 15 0 4 -18 15 -40 25 -34 15
-53 35 -34 35 18 0 103 -44 98 -51 -9 -15 37 -10 101 10 33 10 87 22 119 26
32 4 71 14 85 21 14 8 38 14 52 14 15 0 39 6 53 14 36 18 15 26 -73 26 l-67 0
-13 36 c-15 41 -12 46 29 49 92 5 86 2 100 48 8 23 14 43 15 45 6 9 88 -39
106 -62 21 -27 21 -27 114 -20 l93 7 4 -29 c3 -28 5 -29 53 -26 95 4 140 13
124 24 -10 7 -5 8 19 5 19 -2 37 2 43 10 9 10 2 13 -37 13 -43 0 -46 1 -29 13
12 10 14 16 7 21 -21 13 -13 25 22 32 44 8 66 -4 42 -21 -15 -12 -15 -15 9
-33 27 -21 67 -19 59 3 -9 22 18 30 32 10 13 -17 22 -18 168 -6 85 7 173 10
195 6 37 -6 41 -5 47 19 7 30 -1 47 -20 40 -8 -3 -16 3 -18 14 -5 18 2 21 68
27 40 4 77 4 82 1 5 -3 39 0 76 5 56 9 70 8 84 -4 9 -8 23 -12 30 -10 19 7 15
-2 -17 -36 -26 -27 -37 -32 -85 -34 -30 -1 -58 -6 -62 -10 -12 -12 -24 -8 -24
8 0 19 -29 19 -54 0 -16 -12 -17 -16 -4 -29 13 -12 47 -13 212 -9 146 5 201
10 211 20 17 16 30 16 55 1 15 -10 22 -10 32 0 10 10 10 15 -2 22 -15 10 -8
14 22 11 22 -3 32 17 18 34 -15 18 -76 20 -84 3 -3 -9 -8 -8 -16 5 -8 12 -18
15 -36 11 -13 -3 -34 -4 -46 -1 -22 6 -23 10 -22 114 2 242 17 463 31 474 14
12 225 1 457 -22 106 -11 116 -8 116 37 0 23 29 54 50 54 9 0 10 3 4 9 -5 5
-83 16 -174 25 -197 18 -508 62 -532 76 -10 6 -22 10 -27 10 -13 0 -246 134
-286 164 -16 13 -59 39 -95 58 -59 33 -74 36 -175 43 -60 3 -141 10 -180 15
-38 4 -140 15 -225 24 -85 8 -200 20 -255 26 -55 6 -199 19 -320 30 -121 11
-254 24 -295 29 -41 6 -102 13 -135 16 -33 3 -149 15 -257 26 l-198 20 -132
88 c-73 48 -177 114 -230 147 -90 54 -171 109 -558 378 -74 51 -144 103 -154
115 -19 21 -19 21 1 21 11 0 82 -9 157 -21 75 -11 154 -21 174 -23 20 -2 71
-10 112 -19 41 -8 116 -21 165 -27 50 -6 110 -16 135 -22 25 -5 63 -11 85 -13
65 -7 149 -28 160 -41 14 -17 55 -28 55 -15 0 6 -7 11 -15 11 -8 0 -15 4 -15
9 0 13 149 1 185 -15 29 -13 42 -21 95 -55 37 -25 179 -76 228 -83 41 -6 42
-5 32 14 -6 11 -18 20 -26 20 -8 0 -12 5 -9 10 8 13 -8 13 -22 -1 -13 -13 -60
-1 -67 18 -5 13 0 15 34 9 31 -5 45 -2 57 10 14 14 30 15 97 10 45 -4 97 -11
116 -16 19 -5 64 -11 100 -14 36 -3 103 -12 150 -22 47 -9 117 -17 155 -18
109 -4 297 -16 332 -21 17 -3 34 -2 37 4 3 5 -37 12 -92 16 -197 14 -741 76
-839 96 l-51 10 -7 49 c-4 27 -4 63 0 79 6 28 4 30 -29 36 -29 6 -35 11 -36
33 -2 67 -4 72 -26 72 -12 0 -25 -7 -28 -16z m44 -24 c0 -5 -4 -10 -10 -10 -5
0 -10 5 -10 10 0 6 5 10 10 10 6 0 10 -4 10 -10z m-190 -200 c0 -5 -4 -10 -10
-10 -5 0 -10 5 -10 10 0 6 5 10 10 10 6 0 10 -4 10 -10z m-1243 -770 c3 -11 9
-20 14 -20 15 0 10 -78 -5 -87 -7 -4 -16 -15 -19 -23 -3 -8 -6 1 -7 20 -1 19
-3 56 -5 83 -3 47 12 66 22 27z m1430 -122 c-2 -13 -4 -5 -4 17 -1 22 1 32 4
23 2 -10 2 -28 0 -40z m-285 -248 c-7 -166 -9 -189 -10 -100 -2 119 11 398 15
345 2 -16 -1 -127 -5 -245z m873 255 l50 -14 -57 0 c-45 -1 -58 2 -58 14 0 18
1 18 65 0z m105 -15 c0 -11 -7 -20 -15 -20 -8 0 -15 9 -15 20 0 11 7 20 15 20
8 0 15 -9 15 -20z m-865 -21 c9 -29 -4 -38 -21 -15 -18 25 -18 36 0 36 8 0 18
-9 21 -21z m175 -70 c0 -33 -4 -58 -9 -55 -5 3 -7 15 -4 26 4 14 0 20 -11 20
-19 0 -23 56 -3 63 25 11 27 6 27 -54z m70 22 c0 -51 -31 -49 -44 2 -6 24 -4
27 19 27 21 0 25 -5 25 -29z m556 21 c-5 -8 -76 -4 -76 4 0 2 18 4 41 4 22 0
38 -4 35 -8z m410 -19 c-7 -7 -26 7 -26 19 0 6 6 6 15 -2 9 -7 13 -15 11 -17z
m-336 7 c0 -5 -7 -10 -15 -10 -8 0 -15 5 -15 10 0 6 7 10 15 10 8 0 15 -4 15
-10z m-108 -40 c36 -19 65 -18 79 3 11 16 41 -1 37 -20 -3 -13 -12 -17 -31
-15 -15 1 -27 -2 -27 -8 0 -5 9 -10 19 -10 10 0 29 -9 42 -19 22 -18 23 -20 6
-27 -10 -3 -69 -3 -132 2 -76 6 -116 6 -119 -1 -9 -24 -18 29 -12 70 l7 45 47
0 c28 0 62 -8 84 -20z m-203 -19 c9 -6 11 -18 7 -35 -8 -31 -13 -32 -45 -6
-19 17 -21 23 -11 35 14 17 29 19 49 6z m661 -36 c0 -19 -4 -35 -10 -35 -5 0
-10 16 -10 35 0 19 5 35 10 35 6 0 10 -16 10 -35z m125 -65 c3 -5 -1 -10 -9
-10 -9 0 -16 5 -16 10 0 6 4 10 9 10 6 0 13 -4 16 -10z m-1181 -132 c-9 -59
-16 -62 -12 -5 2 26 6 47 11 47 4 0 4 -19 1 -42z m1436 -248 c0 -238 -3 -247
-50 -193 -22 26 -22 29 -10 90 8 44 9 67 2 76 -6 6 -10 61 -10 120 0 102 1
109 21 117 48 19 47 23 47 -210z m-495 187 c3 -12 5 -52 3 -87 -3 -63 -4 -65
-30 -68 -20 -2 -28 1 -28 12 0 9 5 16 10 16 6 0 10 32 10 75 0 60 3 75 15 75
8 0 17 -10 20 -23z m-948 -209 c-1 -40 -3 -8 -3 72 0 80 2 112 3 73 2 -40 2
-106 0 -145z m1318 124 c-3 -42 -5 -134 -5 -204 1 -84 -2 -128 -9 -128 -6 0
-11 5 -11 11 0 5 -3 8 -8 5 -26 -16 -77 77 -67 124 5 23 2 31 -15 40 -16 9
-20 19 -18 43 3 32 3 32 52 29 33 -3 51 0 57 10 5 7 9 46 9 86 0 48 4 71 10
67 7 -4 8 -35 5 -83z m-238 -4 c-2 -13 -4 -3 -4 22 0 25 2 35 4 23 2 -13 2
-33 0 -45z m-3127 -87 c0 -44 -4 -83 -10 -86 -6 -4 -10 25 -10 79 0 51 4 86
10 86 6 0 10 -33 10 -79z m37 -33 c-2 -24 -4 -7 -4 37 0 44 2 63 4 43 2 -21 2
-57 0 -80z m1720 -15 c-2 -21 -4 -6 -4 32 0 39 2 55 4 38 2 -18 2 -50 0 -70z
m770 35 c-3 -7 -5 -2 -5 12 0 14 2 19 5 13 2 -7 2 -19 0 -25z m-1039 -6 c2 -7
-3 -12 -12 -12 -9 0 -16 7 -16 16 0 17 22 14 28 -4z m-1301 -24 c-3 -7 -5 -2
-5 12 0 14 2 19 5 13 2 -7 2 -19 0 -25z m2763 -159 c0 -36 -4 -58 -10 -54 -5
3 -7 12 -3 20 3 9 -1 15 -8 15 -10 0 -10 3 -1 12 7 7 12 25 12 40 0 15 2 28 5
28 3 0 5 -27 5 -61z m-1550 21 c0 -5 -4 -10 -10 -10 -5 0 -10 5 -10 10 0 6 5
10 10 10 6 0 10 -4 10 -10z m2028 -79 c-14 -22 -28 -28 -28 -11 0 19 24 50 33
41 5 -5 3 -18 -5 -30z m-2534 -70 c3 -4 -3 -16 -14 -26 -19 -18 -20 -17 -20 8
0 26 22 38 34 18z m934 -3 c-2 -6 8 -17 22 -24 13 -7 31 -22 40 -34 12 -16 22
-19 48 -14 19 4 32 13 33 23 4 60 -3 56 84 53 118 -4 174 -12 190 -28 10 -10
16 -11 21 -3 9 15 59 4 94 -21 32 -23 47 -70 31 -97 -9 -15 -10 -13 -11 13 0
48 -28 57 -130 45 -47 -5 -185 -13 -308 -17 -122 -4 -225 -11 -228 -16 -3 -5
-18 -6 -33 -3 -15 3 -38 2 -50 -3 -22 -8 -22 -9 -6 -25 9 -9 30 -17 46 -17 16
0 29 -4 29 -10 0 -5 -5 -10 -12 -10 -9 0 -9 -3 0 -12 10 -10 15 -10 20 -1 5 7
13 9 21 3 8 -4 20 -6 27 -3 7 2 22 -1 34 -7 l22 -12 -20 -20 c-11 -11 -31 -22
-44 -23 -12 -2 -40 -10 -60 -19 -21 -9 -51 -16 -67 -16 -16 0 -33 -4 -36 -10
-8 -13 36 -13 69 0 34 13 58 3 54 -24 -2 -15 -10 -21 -25 -20 -13 0 -23 -5
-23 -13 0 -7 -5 -13 -12 -13 -9 0 -9 -3 0 -12 16 -16 16 -51 0 -46 -7 3 -14
19 -16 36 -2 20 -9 32 -18 32 -8 0 -14 5 -14 11 0 6 -8 9 -19 6 -16 -4 -18 1
-17 34 1 33 4 39 22 39 24 0 34 17 34 62 0 34 -19 34 -35 0 -5 -12 -13 -22
-18 -22 -8 0 1 45 14 72 5 9 9 33 9 52 0 34 1 35 30 30 17 -4 36 -1 44 5 8 7
25 11 38 9 15 -2 22 2 20 11 -2 8 3 11 13 8 14 -6 19 8 18 51 -1 7 13 12 38
12 25 0 38 -4 37 -12z m1637 2 c3 -5 -3 -10 -14 -10 -12 0 -21 5 -21 10 0 6 6
10 14 10 8 0 18 -4 21 -10z m-3750 -10 c-3 -5 -10 -10 -16 -10 -5 0 -9 5 -9
10 0 6 7 10 16 10 8 0 12 -4 9 -10z m865 -17 c0 -7 -20 -22 -45 -33 -47 -20
-59 -40 -25 -40 11 0 20 -2 20 -5 0 -3 -20 -32 -45 -66 -25 -34 -45 -65 -45
-70 0 -5 -7 -9 -15 -9 -8 0 -15 9 -15 20 0 25 -1 25 -45 -1 -31 -18 -39 -20
-65 -9 -28 12 -30 16 -30 64 0 48 2 53 28 63 l27 10 -27 11 c-36 15 -36 43 -1
60 36 16 56 15 50 -2 -6 -16 52 -30 67 -16 4 5 24 6 42 3 29 -5 34 -3 34 15 0
14 8 22 23 24 36 5 67 -3 67 -19z m2723 20 c-7 -2 -19 -2 -25 0 -7 3 -2 5 12
5 14 0 19 -2 13 -5z m-3327 -39 c-3 -9 -15 -69 -27 -133 -11 -64 -22 -124 -25
-133 -7 -23 -44 -24 -44 -1 0 15 -2 14 -16 -3 -14 -18 -15 -17 -9 21 4 32 3
36 -6 21 -11 -17 -12 -17 -23 5 -7 13 -18 23 -24 22 -8 -2 -13 17 -14 55 -2
89 2 116 20 127 27 16 70 23 80 13 5 -5 21 -2 38 7 38 20 58 19 50 -1z m2505
-6 c1 -13 1 -27 0 -31 -1 -5 8 -11 19 -14 13 -3 20 -14 20 -29 0 -28 -17 -41
-23 -17 -3 10 -5 -4 -6 -30 -1 -44 -3 -48 -23 -45 -25 3 -27 18 -15 103 3 22
6 50 6 63 1 12 6 22 11 22 6 0 11 -10 11 -22z m99 -38 c-6 -11 -15 -18 -21
-15 -14 9 -11 25 6 25 9 0 15 10 16 23 1 16 3 17 6 5 2 -9 -1 -26 -7 -38z
m590 -16 c0 -2 -7 -4 -15 -4 -8 0 -15 4 -15 10 0 5 7 7 15 4 8 -4 15 -8 15
-10z m-1972 -28 c2 -11 1 -67 -4 -125 -5 -69 -10 -96 -14 -76 -4 20 -11 29
-22 27 -11 -2 -19 9 -25 35 -6 26 -15 39 -28 41 -15 2 -17 1 -6 -6 8 -6 14
-30 15 -61 l2 -51 -48 0 c-34 0 -48 4 -48 14 0 21 -37 26 -55 7 -11 -14 -24
-16 -53 -12 -33 6 -37 10 -40 40 -2 21 3 40 14 52 9 11 22 29 28 41 15 29 47
47 53 31 3 -7 8 -13 13 -13 10 0 8 20 -4 38 -18 29 28 40 154 38 56 -1 65 -4
68 -20z m-1221 -43 c-3 -10 -5 -4 -5 12 0 17 2 24 5 18 2 -7 2 -21 0 -30z
m603 26 c0 -17 -62 -99 -71 -93 -5 3 6 27 24 54 31 48 47 61 47 39z m1837 -21
c-3 -8 -6 -5 -6 6 -1 11 2 17 5 13 3 -3 4 -12 1 -19z m-77 -3 c0 -8 -4 -15
-10 -15 -5 0 -10 7 -10 15 0 8 5 15 10 15 6 0 10 -7 10 -15z m-40 -5 c0 -5 -4
-10 -10 -10 -5 0 -10 5 -10 10 0 6 5 10 10 10 6 0 10 -4 10 -10z m-835 -40
c-3 -5 -10 -10 -16 -10 -5 0 -9 5 -9 10 0 6 7 10 16 10 8 0 12 -4 9 -10z m565
-20 c0 -11 -2 -20 -4 -20 -2 0 -6 9 -9 20 -3 11 -1 20 4 20 5 0 9 -9 9 -20z
m-2064 -57 c-11 -29 -17 -6 -9 33 7 36 8 37 11 11 2 -16 1 -36 -2 -44z m132
-22 c3 -93 -1 -101 -57 -101 -33 0 -33 1 -27 33 18 81 19 99 6 107 -23 14 5
45 42 45 l33 0 3 -84z m462 19 c-12 -16 -25 -30 -30 -30 -12 0 -1 28 24 63 16
22 22 25 24 13 2 -9 -6 -29 -18 -46z m-150 25 c0 -20 -33 -63 -52 -68 -33 -9
-35 1 -3 13 21 8 25 14 17 22 -8 8 -7 15 6 24 18 14 32 18 32 9z m1630 -38 c0
-10 -4 -15 -10 -12 -5 3 -10 18 -10 33 0 21 2 24 10 12 5 -8 10 -23 10 -33z
m-276 14 c3 -5 -1 -14 -8 -20 -16 -13 -32 2 -21 19 8 12 22 13 29 1z m-239
-83 c-9 -29 -19 -59 -21 -67 -2 -8 -6 -12 -9 -10 -2 3 3 29 11 59 22 79 24 83
30 77 3 -3 -2 -30 -11 -59z m-1627 18 c-10 -7 -18 -23 -18 -35 0 -11 -4 -21
-10 -21 -13 0 -13 12 0 44 5 15 17 26 27 26 17 -1 17 -1 1 -14z m552 4 c0 -5
-4 -10 -10 -10 -5 0 -10 5 -10 10 0 6 5 10 10 10 6 0 10 -4 10 -10z m60 0 c0
-5 -2 -10 -4 -10 -3 0 -8 5 -11 10 -3 6 -1 10 4 10 6 0 11 -4 11 -10z m-539
-51 l-10 -24 0 26 c-1 14 2 29 6 33 12 12 14 -9 4 -35z m294 1 c-3 -5 -13 -10
-21 -10 -8 0 -14 5 -14 10 0 6 9 10 21 10 11 0 17 -4 14 -10z m-265 -80 l-11
-25 6 25 c2 14 5 34 6 45 2 19 2 19 6 0 2 -12 -1 -32 -7 -45z m-139 -7 c-9
-15 -10 -13 -11 13 0 17 3 34 8 38 11 12 14 -32 3 -51z m-70 17 c6 0 7 -4 4
-10 -14 -22 -32 -10 -27 18 4 19 7 22 10 10 2 -10 8 -18 13 -18z m309 -14 c0
-15 -18 -31 -26 -23 -7 7 7 37 17 37 5 0 9 -6 9 -14z"/>
<path d="M2835 2760 c-3 -5 -2 -10 4 -10 5 0 13 5 16 10 3 6 2 10 -4 10 -5 0
-13 -4 -16 -10z"/>
<path d="M2710 2590 c0 -5 5 -10 10 -10 6 0 10 5 10 10 0 6 -4 10 -10 10 -5 0
-10 -4 -10 -10z"/>
<path d="M2668 2563 c12 -2 30 -2 40 0 9 3 -1 5 -23 4 -22 0 -30 -2 -17 -4z"/>
<path d="M810 2604 c0 -8 5 -12 10 -9 6 4 8 11 5 16 -9 14 -15 11 -15 -7z"/>
<path d="M1932 2602 c-16 -11 -5 -67 16 -84 13 -11 14 -10 9 13 -5 18 -2 31 8
39 32 27 4 55 -33 32z"/>
<path d="M2152 2570 c0 -14 2 -19 5 -12 2 6 2 18 0 25 -3 6 -5 1 -5 -13z"/>
<path d="M2000 2565 c0 -7 3 -21 6 -29 5 -13 9 -14 20 -5 11 9 19 6 36 -16 20
-25 22 -26 28 -9 4 10 1 24 -7 32 -7 7 -13 19 -13 27 0 8 -13 13 -35 13 -22 0
-35 -5 -35 -13z"/>
<path d="M194 4560 c-4 -27 -12 -40 -23 -41 -24 -3 -80 1 -128 7 l-43 5 0 -71
c0 -65 2 -71 18 -65 9 4 33 9 52 11 19 3 67 9 105 15 39 6 79 12 90 13 17 3
20 11 21 67 2 74 -4 89 -23 64 -12 -18 -13 -17 -13 8 0 22 -5 27 -25 27 -21 0
-26 -6 -31 -40z"/>
<path d="M4228 4473 c7 -3 16 -2 19 1 4 3 -2 6 -13 5 -11 0 -14 -3 -6 -6z"/>
<path d="M249 4360 c-2 -25 -4 -65 -5 -90 -2 -83 -4 -90 -19 -90 -8 0 -15 -5
-15 -12 0 -6 -12 -1 -26 13 l-27 24 6 -65 c3 -36 9 -76 13 -89 6 -19 4 -22
-12 -19 -21 4 -32 34 -33 95 -1 48 -21 71 -21 24 0 -17 -4 -31 -10 -31 -5 0
-9 6 -7 13 1 7 -8 12 -23 12 -30 0 -39 -29 -16 -54 15 -16 15 -19 1 -31 -20
-17 -19 -40 5 -70 11 -14 20 -28 20 -32 0 -12 -35 -9 -47 3 -25 25 -31 -5 -32
-155 -2 -135 0 -154 15 -160 19 -7 54 19 54 41 0 16 22 17 37 2 13 -13 6 -39
-9 -39 -6 0 -5 6 2 15 10 12 10 15 -3 15 -8 0 -24 -16 -36 -36 -26 -43 -26
-44 -1 -44 11 0 20 -6 20 -14 0 -11 7 -11 37 4 21 10 46 28 55 39 10 12 27 21
37 21 11 0 23 5 26 10 12 19 30 10 31 -16 2 -30 9 -38 24 -29 7 4 10 20 8 36
-4 27 -2 29 29 29 23 0 41 8 57 25 13 14 28 25 34 25 5 0 29 16 53 35 36 31
42 41 42 73 -1 72 -1 74 -24 67 -18 -6 -20 -4 -14 15 6 20 4 22 -15 17 -26 -7
-70 8 -70 23 0 5 16 20 35 32 19 13 35 27 35 33 0 5 -5 4 -12 -3 -14 -14 -58
-16 -58 -3 0 6 5 13 10 16 6 4 8 11 5 16 -4 5 2 9 12 9 13 0 15 2 5 9 -7 4
-12 12 -11 17 1 5 1 24 0 42 -1 27 -5 32 -26 32 -14 0 -25 -4 -25 -10 0 -5 -5
-10 -11 -10 -6 0 -9 6 -6 14 8 21 -19 42 -37 27 -24 -20 -49 32 -43 88 3 25 2
66 -2 91 l-8 45 -4 -45z m141 -310 c0 -5 -4 -10 -10 -10 -5 0 -10 5 -10 10 0
6 5 10 10 10 6 0 10 -4 10 -10z m-250 -120 c0 -5 -2 -10 -4 -10 -3 0 -8 5 -11
10 -3 6 -1 10 4 10 6 0 11 -4 11 -10z m2 -252 c-7 -7 -12 -8 -12 -2 0 14 12
26 19 19 2 -3 -1 -11 -7 -17z"/>
<path d="M180 4269 c0 -9 7 -22 15 -29 19 -16 19 0 0 26 -12 16 -14 16 -15 3z"/>
<path d="M460 3979 c0 -5 5 -7 10 -4 6 3 10 8 10 11 0 2 -4 4 -10 4 -5 0 -10
-5 -10 -11z"/>
<path d="M545 3881 c3 -11 1 -22 -5 -26 -15 -9 -13 -19 13 -49 21 -24 25 -25
37 -12 7 9 18 16 26 16 9 0 7 12 -9 45 -24 49 -33 55 -40 28 -4 -17 -5 -17 -6
0 0 9 -6 17 -12 17 -6 0 -8 -8 -4 -19z m45 -51 c0 -5 -4 -10 -10 -10 -5 0 -10
5 -10 10 0 6 5 10 10 10 6 0 10 -4 10 -10z"/>
<path d="M345 3659 c-10 -15 3 -25 16 -12 7 7 7 13 1 17 -6 3 -14 1 -17 -5z"/>
<path d="M5800 3336 c0 -8 -6 -16 -12 -19 -9 -3 -6 -10 10 -22 30 -22 32 -84
2 -92 -28 -7 -25 -23 5 -23 16 0 25 -6 25 -15 0 -9 9 -25 20 -37 19 -20 20
-20 20 -3 0 10 -7 44 -15 74 -8 31 -17 77 -20 104 -4 31 -11 47 -21 47 -8 0
-14 -6 -14 -14z"/>
<path d="M6018 3133 c-22 -5 -24 -39 -3 -47 8 -3 15 -17 15 -31 0 -16 -6 -25
-15 -25 -8 0 -15 9 -15 20 0 11 -5 20 -10 20 -6 0 -8 -11 -4 -27 9 -36 6 -34
54 -40 l42 -6 -7 64 c-6 56 -18 81 -35 78 -3 -1 -13 -3 -22 -6z"/>
<path d="M5800 2967 c0 -8 3 -17 8 -21 4 -4 7 -13 7 -19 0 -17 41 -21 48 -4 7
18 -2 31 -30 46 -28 14 -33 14 -33 -2z"/>
<path d="M6191 2935 c-18 -8 -47 -15 -65 -16 -29 0 -28 -2 23 -25 31 -14 72
-24 97 -24 32 0 44 -4 44 -15 0 -9 -9 -15 -22 -16 -22 0 -22 -1 -3 -9 33 -14
35 -12 35 45 0 49 -2 55 -21 55 -11 0 -17 5 -14 10 9 15 -35 11 -74 -5z"/>
<path d="M5248 2888 c9 -9 15 -9 24 0 9 9 7 12 -12 12 -19 0 -21 -3 -12 -12z"/>
<path d="M5350 2850 c-13 -8 -12 -10 3 -10 9 0 17 5 17 10 0 12 -1 12 -20 0z"/>
<path d="M3717 2715 c-8 -18 11 -31 25 -17 11 11 3 32 -12 32 -4 0 -10 -7 -13
-15z"/>
<path d="M4645 2720 c-13 -21 9 -29 60 -22 50 6 50 6 15 13 -19 3 -42 9 -51
13 -10 4 -20 2 -24 -4z"/>
<path d="M4788 2703 c7 -3 16 -2 19 1 4 3 -2 6 -13 5 -11 0 -14 -3 -6 -6z"/>
<path d="M5878 2633 c12 -2 30 -2 40 0 9 3 -1 5 -23 4 -22 0 -30 -2 -17 -4z"/>
<path d="M120 2590 c-47 -16 -93 -30 -102 -30 -15 0 -18 -10 -18 -59 0 -56 1
-58 25 -54 19 4 25 0 31 -21 3 -14 10 -26 15 -26 10 0 10 0 13 53 2 21 7 42
13 48 5 5 37 15 71 21 34 6 62 15 62 20 0 4 11 8 25 8 14 0 25 6 25 14 0 7 15
17 33 23 l32 10 -53 11 c-71 16 -74 16 -172 -18z"/>
<path d="M190 2503 c-58 -7 -60 -23 -2 -23 30 0 52 -4 52 -11 0 -6 -17 -9 -43
-8 -53 3 -70 -6 -64 -37 3 -18 0 -24 -14 -24 -24 0 -25 -17 -1 -24 25 -8 67
-54 58 -63 -4 -4 -10 -2 -14 4 -14 21 -78 53 -107 53 -24 0 -27 -2 -15 -11 12
-8 9 -9 -12 -5 l-28 6 0 -99 0 -100 53 5 c28 3 74 10 100 15 26 5 89 10 140
10 51 1 121 4 157 8 l65 6 3 35 c6 57 42 65 42 9 0 -20 4 -29 13 -26 31 10 5
84 -36 101 -9 3 -8 7 2 14 10 7 10 14 2 30 -6 11 -11 30 -11 41 0 11 -9 39
-21 61 l-21 40 -132 -2 c-72 0 -147 -3 -166 -5z m50 -103 c11 -7 3 -10 -28
-10 -26 0 -41 4 -37 10 8 13 45 13 65 0z m-6 -156 c8 -21 -3 -44 -19 -38 -7 3
-16 16 -19 29 -3 13 -9 31 -13 40 -6 16 -5 16 20 1 14 -10 28 -24 31 -32z"/>
<path d="M3034 2360 c3 -14 6 -40 6 -57 0 -18 4 -33 9 -33 12 0 3 92 -10 104
-9 8 -10 5 -5 -14z"/>
<path d="M2567 2314 c-11 -11 -8 -54 3 -54 6 0 13 6 16 14 7 17 -9 50 -19 40z"/>
<path d="M2440 2275 c0 -14 5 -25 10 -25 6 0 10 11 10 25 0 14 -4 25 -10 25
-5 0 -10 -11 -10 -25z"/>
<path d="M6100 75 c-14 -8 -19 -14 -12 -15 18 0 15 -38 -5 -49 -14 -8 -10 -10
23 -11 47 0 54 9 47 58 -6 35 -15 38 -53 17z"/>
<path d="M5790 10 c-12 -8 -11 -10 7 -10 12 0 25 5 28 10 8 13 -15 13 -35 0z"/>
</g>
</svg>
